# xmcd
#
# Track frame offsets:
#	150
#	11142
#	28037
#	35937
#	61825
#	76125
#	94760
#	104532
#	113105
#	125072
#	137222
#
# Disc length: 2006 seconds
#
# Revision: 0
# Processed by: cddbd v1.5.2PL0 Copyright (c) Steve Scherf et al.
# Submitted via: dBpowerAMP V4.0
#
DISCID=9707d40b
DTITLE=Helge Johannesen - Min Steel
DYEAR=1900
DGENRE=Country
TTITLE0=Bak stjernenes myriader
TTITLE1=Halleluja
TTITLE2=Se, Han kommer
TTITLE3=Aages medley
TTITLE4=I de sene aftenstunder
TTITLE5=Blott en dag
TTITLE6=Take my strings, precious Lord
TTITLE7=Steel track
TTITLE8=My Dobro Song
TTITLE9=Jeg er Kongens barn
TTITLE10=Ten strings of peace
EXTD=
EXTT0=
EXTT1=
EXTT2=
EXTT3=
EXTT4=
EXTT5=
EXTT6=
EXTT7=
EXTT8=
EXTT9=
EXTT10=
PLAYORDER=
